<?xml version="1.0" encoding="utf-8"?>
<!-- Generator: Adobe Illustrator 21.0.0, SVG Export Plug-In . SVG Version: 6.00 Build 0)  -->
<svg version="1.2" baseProfile="tiny" id="Layer_1" xmlns="http://www.w3.org/2000/svg" xmlns:xlink="http://www.w3.org/1999/xlink"
	 x="0px" y="0px" viewBox="0 0 360 640" xml:space="preserve">
<g>
	<polygon fill="#FFFFFF" points="124,401.4 169.8,401.4 169.8,362.3 124,362.3 124,401.4 	"/>
	<polygon fill="#D9E8F1" points="169.8,401.4 186.6,401.4 186.6,362.3 169.8,362.3 169.8,401.4 	"/>
	<path fill="#FBCBBD" d="M156.7,297.8c-0.6,0.4-1.3,0.8-2,1c0.8-0.1,0.8,0.4,1.7,0.4c0.3-0.1,1.4-1.3,1.2-1.5
		C157.3,297.2,157.1,297.6,156.7,297.8L156.7,297.8z"/>
	<path fill="#FBCBBD" d="M160.4,299.5c-0.3-0.2-1.3-0.3-1.7-0.3c-0.1,0-2-0.3-2.9-0.4c-0.7,0-1.4,0-2.1,0.1c0,0-0.4,2.8-0.3,3.7
		c1.2,0.1,4.9-0.1,5-0.1c1.5,0.3,1.9-0.2,1.6-0.7c-0.1-0.1,0.9-0.3,0.8-0.8c0,0,0.3-0.2,0.2-0.6
		C160.9,300.2,160.5,299.6,160.4,299.5L160.4,299.5z"/>
	<path fill="#FBCBBD" d="M128.3,270.4c-0.2-0.7-8.5,1.6-9.7,2.5c-2.8,2.1,3.8,19.4,7.3,25.2c1.3,2.2,7.3,3.7,5.6-4
		C130,287.7,129.5,274.4,128.3,270.4L128.3,270.4z"/>
	<path fill="#276078" d="M118.6,272.9c-1.9,1.4-1.2,10.1,1.6,17.1c0.8-0.1,3.4-0.8,4.2-0.9c2.1-0.5,4.9-1.3,6.9-2.1
		c-1.4-6.2-2.1-13.7-3-16.5C128.1,269.7,119.9,272,118.6,272.9L118.6,272.9z"/>
	<path fill="#FBCBBD" d="M129.1,293.9c-0.2,0-0.5,0-0.8,0.1c-1.4,0.3-3.1,1.6-2.2,4.3c0.9,2.9,20.3,4.6,28,4.4c-0.1-1,0-2.2,0.3-3.8
		C149.7,299.1,133.6,294.4,129.1,293.9L129.1,293.9z"/>
	<path fill="#FBCBBD" d="M80.4,336.2c-0.8,2.4-9.1,57.5-9.1,57.5c0,0.1,2,0.8,3.6,0.1c0,0,15.8-52.2,16.1-53.2
		C89.9,341.2,81.5,337.6,80.4,336.2L80.4,336.2z"/>
	<path fill="#3B8FB4" d="M75.6,393.9c-0.4-0.7-0.7-1.8-0.7-1.8l-3.2,0.9c0,0-0.3,0.3-0.4,1.2c0,0-0.7,0.9-0.3,1.9
		c0.2,0.6,1.8,1.5,2.6,2.3c0.6,0.6,1.8,1,3.2,1.3c1.4,0.3,3.3,0,3.5-0.8C80.7,397.1,76.3,395.2,75.6,393.9L75.6,393.9z"/>
	<path fill="#FBCBBD" d="M71.5,392.6c0,0-0.1,0.6-0.2,1.6c0,0,1.6,1.1,2.3,0.9c1.2-0.3,2-1.2,2-1.2c-0.5-1.1-0.6-1.9-0.6-1.9
		L71.5,392.6L71.5,392.6z"/>
	<path fill="#B0D7D7" d="M86,298.6c0,0-7.5,35-9.1,52.3c-1.9,20.1-5.5,41.1-5.5,41.1c1,1.9,4.1,1,4.2,0.9c0,0,29.4-87.5,29.8-91.2
		C102.8,302,92.7,300.6,86,298.6L86,298.6z"/>
	<path fill="#FBCBBD" d="M102.1,339.1c-0.2,2.5,4.7,58,4.7,58c0,0.1,2.2,0.3,3.5-0.8c0,0,3-54.4,3.1-55.5
		C112.5,341.7,103.5,340.2,102.1,339.1L102.1,339.1z"/>
	<path fill="#3B8FB4" d="M111,396.2c-0.5-0.6-1.1-1.5-1.1-1.5l-2.9,1.6c0,0-0.2,0.3-0.1,1.2c0,0-0.4,1,0.1,1.9
		c0.3,0.5,2.2,1.3,3.1,1.6c0.8,0.3,2,0.5,3.4,0.5c1.4-0.1,3.2-0.8,3.2-1.6C116.7,398.2,112,397.4,111,396.2L111,396.2z"/>
	<path fill="#FBCBBD" d="M106.7,396c0,0,0.1,0.6,0.2,1.5c0,0,1.8,0.6,2.4,0.3c1.1-0.6,1.7-1.6,1.7-1.6c-0.7-0.9-1-1.7-1-1.7
		L106.7,396L106.7,396z"/>
	<path fill="#B0D7D7" d="M98.6,301.2v18.3c1.4,1.1,1,17.4,3.5,34.7c2.9,20,4.3,41.2,4.3,41.2c1.4,1.6,4.3,0,4.3-0.1
		c0,0,7.9-91.9,7.4-95.7C115.8,300.6,105.6,301.6,98.6,301.2L98.6,301.2z"/>
	<path fill="#276078" d="M82.4,305.4c-0.1,1.4,12.6,3.7,19,6.4c6.4,2.8,14.6,7.2,17.5,5.8c1.3-0.6,2.2-11.5,2.2-11.5l-34.4-12.3
		C86.6,293.9,82.6,301.5,82.4,305.4L82.4,305.4z"/>
	<path fill="#FBCBBD" d="M117.7,253.2c-0.3,2-2.3,7-3.3,7.8c0.5,3.9,6.2,5.5,7.2,3.6c-0.3-2.4,1.9-6.2,2-6.6
		C122.2,257.8,118.1,253.7,117.7,253.2L117.7,253.2z"/>
	<path fill="#FBCBBD" d="M124.8,248c-2.8-0.6-5.1,1.3-5.7,4.1l-0.6,2.9c-0.5,2.1,2,6.1,3.9,6.1c4.5,0,7.1-7.6,7.2-8.6
		C129.7,249.9,127.4,248.5,124.8,248L124.8,248z"/>
	<path fill="#4EBFF0" d="M121.6,264.6c0,0-1.6,1.1-2.9,0.6c-2-0.7-4.2-4.2-4.2-4.2s-4.6-0.1-6.2-0.1c-4.6-0.2-7.1,1.5-9.9,5.4
		c-0.9,1.2-7.3,16.6-14.2,31.7c-2.1,4.5,33.2,17.6,36.4,14.4c1.3-1.3,1.3-5.8,7.5-34.6c0.6-2.9,1.6-6.3-1.3-9.4
		C126.1,267.6,121.6,264.6,121.6,264.6L121.6,264.6z"/>
	<polygon fill="#D9E8F1" points="108.8,330.4 154.6,330.4 154.6,291.2 108.8,291.2 108.8,330.4 	"/>
	<polygon fill="#A2BCCD" points="154.6,330.4 171.4,330.4 171.4,291.2 154.6,291.2 154.6,330.4 	"/>
	<path fill="#FBCBBD" d="M137.2,300.4c-0.7,0.2-1.5,0.3-2.2,0.3c0.8,0.2,0.6,0.7,1.5,0.9c0.4,0,1.7-0.7,1.6-1.1
		C138,300,137.6,300.2,137.2,300.4L137.2,300.4z"/>
	<path fill="#FBCBBD" d="M140.2,302.6c-0.1-0.1-2.3-1.1-3.3-1.4c-0.8-0.3-1.7-0.5-2.5-0.7c0,0-1.5,2.4-1.8,3.3
		c1.4,0.5,5.8,1.7,5.9,1.8c1.6,0.8,2.3,0.5,2.2,0c0-0.1,1.2,0.1,1.2-0.5c0,0,0.4-0.1,0.5-0.5c0-0.3-0.2-0.9-0.4-1.1
		C141.7,303.3,140.6,302.8,140.2,302.6L140.2,302.6z"/>
	<path fill="#FBCBBD" d="M111.3,263.8c-0.2-0.7-8.5,1.5-9.7,2.4c-2.8,2.1,3.8,19.4,7.2,25.2c1.3,2.2,7.3,3.7,5.6-4
		C112.9,281.1,112.4,267.8,111.3,263.8L111.3,263.8z"/>
	<path fill="#276078" d="M99.7,267.4c-0.4,2.3,0.6,8.9,3.3,15.9c3.9,0.1,8.6-1.4,11.1-3c-1.3-6.2-1.2-14.2-2.9-16.5
		C109,260.8,100.9,261.5,99.7,267.4L99.7,267.4z"/>
	<path fill="#FBCBBD" d="M111.7,287.2c-1.4-0.2-3.4,0.4-3.5,3.3c-0.1,3.1,17.6,11.1,24.9,13.5c0.2-0.9,0.8-2.1,1.5-3.5
		c-4.5-1.4-18.1-11.2-22.1-13.1C112.3,287.3,112,287.2,111.7,287.2L111.7,287.2z"/>
	<path fill="#276078" d="M128.9,248c0,0-4.7-5.3-9.4-3c-7.1,3.4-2.2,11.3-2.2,11.3c0.1-2,4.3-8.4,10.2-6.6c0,0,2.8,2.5,0.4,6.9
		C130.2,256.3,133,250.1,128.9,248L128.9,248z"/>
	<path fill="#FBCBBD" d="M119.5,251c-0.7-0.2-1.7,0.5-1.9,1.2c-0.2,0.7,0.2,1.9,0.8,2.3c0.5-0.6,1.6-1.9,2.1-2.8
		C120.2,251.3,119.7,251.1,119.5,251L119.5,251z"/>
	<path fill="#276078" d="M104,245.1c-1.9,5.1-3.3,5.2-5.3,6.4c-9.8,5.9,0.8,21.7,3.4,16.6c1-2-4.4-5.4,4.1-7.9
		c9.3-2.7,6.8-7.4,6.7-10.4c-0.1-11.5,4.9-8.1,5.8-5.6c0.6,1.4,1.4,1,1.8-0.1C122.3,239.6,110.3,228.2,104,245.1L104,245.1z"/>
	<path fill="#14303C" d="M121,243.5c-0.3-0.1-0.7-0.1-1.1,0c-1.6,0.4-1.9,1.4-1.8,2.4c0,0,2-1.2,4-1.3
		C122.1,244.5,121.7,243.7,121,243.5L121,243.5z"/>
	<path fill="#3B8FB4" d="M225.4,397.9c0.5-0.6,1.1-1.5,1.1-1.5l2.9,1.6c0,0,0.2,0.3,0.1,1.2c0,0,0.4,1-0.1,1.9
		c-0.3,0.5-2.2,1.3-3.1,1.6c-0.8,0.3-2,0.5-3.4,0.5c-1.4-0.1-3.2-0.8-3.2-1.6C219.7,399.9,224.4,399.1,225.4,397.9L225.4,397.9z"/>
	<path fill="#FBCBBD" d="M225.7,396.3l3.9,0.7c0,0,0.1,1.3-0.1,2.3c0,0-1.8,0.6-2.4,0.3c-1.1-0.6-1.7-1.6-1.7-1.6
		C226.2,397,225.7,396.3,225.7,396.3L225.7,396.3z"/>
	<path fill="#B0D7D7" d="M237.8,305.6v18.3c-1.4,1.1-9.3,21.8-12.8,33.8c-0.1,0.4,5,35.6,5,39.3c-1.4,1.6-4.3,0-4.3-0.1
		c0,0-11-17.8-12.8-39.3c-2.1-25,5.1-51.5,5.4-53.5C220.7,305.1,230.8,306.1,237.8,305.6L237.8,305.6z"/>
	<path fill="#3B8FB4" d="M247.5,398.4c0.5-0.6,1-1.6,1-1.6l3,1.4c0,0,0.3,0.3,0.2,1.2c0,0,0.5,1,0,1.9c-0.3,0.5-2,1.2-2.9,1.8
		c-0.7,0.5-2,0.7-3.4,0.7c-1.4,0.1-3.2-0.6-3.3-1.4C241.9,400.9,246.6,399.6,247.5,398.4L247.5,398.4z"/>
	<path fill="#FBCBBD" d="M247.8,396.7l3.9,0.4c0,0,0,1.4,0,2.3c0,0-1.8,0.8-2.4,0.5c-1.1-0.5-1.8-1.5-1.8-1.5
		C248.1,397.4,247.8,396.7,247.8,396.7L247.8,396.7z"/>
	<path fill="#B0D7D7" d="M248.1,301.5c8.7,16.6-2.8,40.8-4.3,56.4c0,0,8.2,21.5,8.2,39.2c-1.3,1.7-4.2,0.4-4.3,0.2
		c0-7.2-14.4-25.4-16-38.4c-3-25-0.9-51.5-0.8-53.6C233.3,302.3,242,298.9,248.1,301.5L248.1,301.5z"/>
	<path fill="#FBCBBD" d="M228.1,252c-0.2,2,0.8,7.3,1.5,8.3c-1.4,3.7-7.2,4.1-7.8,2c0.8-2.3-0.5-6.5-0.5-6.9
		C222.8,255.6,227.6,252.4,228.1,252L228.1,252z"/>
	<path fill="#FBCBBD" d="M222.4,245.4c2.9,0,4.7,2.4,4.7,5.2l0,2.9c0,2.1-3.3,5.5-5.2,5.1c-4.4-0.9-5.3-9-5.2-9.9
		C217.2,246.2,219.7,245.4,222.4,245.4L222.4,245.4z"/>
	<path fill="#4EBFF0" d="M215.9,264.8c0.9-0.6,5.9-2.5,5.9-2.5s1.3,1.5,2.7,1.3c2.1-0.3,5-3.2,5-3.2s4.6,0.7,6,1.2
		c13.1,4.3,20.2,20.4,17.9,58.8c-0.7,0.1-2.4,0.1-3.3,0.3l-2.4-12.3l-0.9,13c-12.8,5.9-30.4,1.6-31.8-7.9c0.8-6.4,1-12.2,1-17.2
		c0-1.9-0.1-3.7-0.2-5.4c-0.4-8.2-1.5-13.7-1.6-15C213.9,271.8,212.4,267.2,215.9,264.8"/>
	<path fill="#276078" d="M224.6,263.6c2.1-0.3,5-3.2,5-3.2s2.4,0.3,3.1,0.4c1.6,0.2,3,0.8,3,0.8c-5.6,3.2-14,11.5-14,11.5
		s-3.9-4.7-4.5-8.8c1.1-0.7,4.7-1.9,4.7-1.9S223.1,263.8,224.6,263.6L224.6,263.6z"/>
	<path fill="#276078" d="M228.2,240.8c4.1,3.6,3.5,10.5,0,13.6c0,0-0.6-4.5-2-6.5c-11.7,2.6-12.9-0.5-12.9-1.7
		C213.5,240.6,222.9,236.1,228.2,240.8L228.2,240.8z"/>
	<path fill="#FBCBBD" d="M227.5,249.4c0.7,0.1,1.3,1.2,1.2,1.9c-0.1,0.7-1.1,1.6-1.8,1.7c-0.2-0.8-0.5-2.4-0.6-3.4
		C226.7,249.4,227.2,249.4,227.5,249.4L227.5,249.4z"/>
	<path fill="#FBCBBD" d="M180,300.5c0.7,0.3,1.5,0.4,2.2,0.5c-0.8,0.1-0.7,0.6-1.6,0.8c-0.4,0-1.7-0.9-1.5-1.2
		C179.3,300,179.7,300.3,180,300.5L180,300.5z"/>
	<path fill="#FBCBBD" d="M176.9,302.5c0.2-0.1,2.4-0.9,3.4-1.1c0.9-0.2,1.7-0.4,2.6-0.5c0,0,1.3,2.6,1.5,3.5c-1.4,0.4-6,1.2-6.1,1.3
		c-1.7,0.7-2.3,0.3-2.1-0.2c0-0.1-1.2-0.1-1.2-0.6c0,0-0.4-0.1-0.4-0.5c0-0.3,0.3-0.9,0.5-1.1C175.3,303,176.5,302.6,176.9,302.5
		L176.9,302.5z"/>
	<path fill="#FBCBBD" d="M206.6,289.6c1.4-0.1,3.4,0.7,3.2,3.6c-0.2,3.1-18.5,9.5-26,11.3c-0.1-1-0.6-2.2-1.2-3.6
		c4.6-1,19-9.5,23.2-11.1C206,289.7,206.3,289.6,206.6,289.6L206.6,289.6z"/>
	<path fill="#FBCBBD" d="M215,267.4c0.4-0.6,7.6,4.1,8.5,5.3c2,2.8-9.5,17.4-14.5,21.8c-1.9,1.7-8.1,1.3-4.1-5.5
		C208.2,283.3,212.6,270.8,215,267.4L215,267.4z"/>
	<path fill="#4EBFF0" d="M209.4,277c1.8-4.3,3.7-8.7,5-10.5c0.2-0.3,0.3,0,0.7,0c1.6-0.1,8.2,4.4,9.2,5.7c2.8,3.8-10.6,19.4-14.6,23
		c-3.8,3.5-19,8.7-25.6,10.3l-1.6-5.4c2.7-0.6,19.2-9.3,20.9-10.1C203.6,289.4,207.6,281.3,209.4,277L209.4,277z"/>
	<path fill="#276078" d="M218.6,295.4c1.6,0,2.9-0.2,3.7-0.6c1.1-0.6,13.3-10.2,17.6-15.5c2.3-2.9-2-5.8-4.7-5.8
		c-0.9,0-1.6,0.3-1.8,1c-1.7,5.4-10.6,11.4-17.4,15.3c0.1,1.7,0.2,3.5,0.2,5.4C216.9,295.4,217.8,295.4,218.6,295.4"/>
	<path fill="#FBCBBD" d="M190.3,288.8c0.6,0.4,1.3,0.8,2,1.1c-0.8-0.1-0.8,0.4-1.7,0.3c-0.3-0.1-1.4-1.3-1.1-1.6
		C189.7,288.1,190,288.5,190.3,288.8L190.3,288.8z"/>
	<path fill="#FBCBBD" d="M184.7,290.1c0.3-0.2,1.6-0.2,2-0.2c0.2,0,2.5-0.2,3.6-0.1c0.9,0,1.8,0.1,2.6,0.2c0,0,0.6,2.8,0.5,3.7
		c-1.5,0-6.1-0.5-6.2-0.5c-1.8,0.2-2.3-0.4-2-0.8c0.1-0.1-1.2-0.4-1-0.9c0,0-0.4-0.2-0.3-0.6C184,290.7,184.5,290.2,184.7,290.1
		L184.7,290.1z"/>
	<path fill="#4EBFF0" d="M208.5,286.4c2.7-0.6,5.2-1.1,7.1-1.4c0.3-0.4,0.7-0.8,1.1-1.1c2.3-2.2,5.3-6,8.3-9.6
		c2.9-3.6,5.7-7,7.4-8.4c0.3-0.2,0.6-0.3,1-0.2c1.5,0.4,6.7,6.5,7.2,8c1.6,4.4-15.4,15.7-20.3,18.1c-4.7,2.4-20.7,3.2-27.5,2.9
		l-0.1-5.6C195.4,289.1,202.7,287.6,208.5,286.4L208.5,286.4z"/>
	<g>
		<polygon fill="#D9E8F1" points="265.4,399.6 282.2,399.6 282.2,360.4 265.4,360.4 265.4,399.6 		"/>
		<path fill-rule="evenodd" fill="#276078" d="M269.5,342H241c-5.5,0-10,4.5-10,10c0,5.5,4.5,10,10,10h28.5c5.5,0,10-4.5,10-10
			C279.5,346.5,275,342,269.5,342L269.5,342z"/>
		<polygon fill="#FFFFFF" points="219.7,399.6 265.4,399.6 265.4,360.4 219.7,360.4 219.7,399.6 		"/>
		<polygon fill="#A2BDCE" points="219.7,384.7 257.9,384.7 265.5,360.4 219.7,360.4 219.7,384.7 		"/>
		<polygon fill="#A2BDCE" points="265.6,361.5 273,393.1 282.2,393.1 282.2,360.4 265.4,360.4 265.6,361.5 		"/>
		<polygon fill="#FFFFFF" points="210.9,376.4 257.9,376.4 265.5,360.4 220,360.4 210.9,376.4 		"/>
		<polygon fill="#D9E8F1" points="265.7,360.4 272.5,379.7 289.1,379.7 282.2,360.4 265.7,360.4 		"/>
		<text transform="matrix(1 0 0 1 243.5313 355.8104)" fill="#FFFFFF" font-family="'Poligon-Black'" font-size="11.1949px">BELI</text>
	</g>
</g>
</svg>
